<?xml version="1.0" standalone="no"?><svg xmlns:xlink="http://www.w3.org/1999/xlink" xmlns="http://www.w3.org/2000/svg" viewBox="0 0 1000 636.3616531969637" preserveAspectRatio="xMaxYMax slice"><g transform="scale(1.1481491262011074)"><rect x="0" y="0" width="950.1428571428571" height="554.25" fill="#ffffff"/><rect x="0" y="0" width="79.17857142857143" height="79.17857142857143" fill="#ffffff"/><rect x="0" y="0" width="39.59" height="39.59" fill="#fdf3ed"/><path d="M 0 0 A 39.59 39.59 0 0 1 39.59 39.59 L 0 39.59" fill="#b4a162"/><rect x="39.59" y="0" width="39.59" height="39.59" fill="#c6b787"/><path d="M 39.59 39.59 A 39.59 39.59 0 0 1  79.18 0 L 79.18 39.59" fill="#fcfbf8"/><rect x="0" y="39.59" width="39.59" height="39.59" fill="#d2c6a1"/><path d="M 0 79.18 A 39.59 39.59 0 0 0 39.59 39.59 L 0 39.59" fill="#cabd90"/><rect x="39.59" y="39.59" width="39.59" height="39.59" fill="#ab964f"/><path d="M 39.59 39.59 A 39.59 39.59 0 0 0 79.18 79.18 L 79.18 39.59" fill="#f1b38d"/><rect x="79.17857142857143" y="0" width="79.17857142857143" height="79.17857142857143" fill="#ffffff"/><rect x="79.18" y="0" width="39.59" height="39.59" fill="#fefbf9"/><path d="M 79.18 0 A 39.59 39.59 0 0 0 118.77000000000001 39.59 L 118.77000000000001 0" fill="#ad9954"/><rect x="118.77" y="0" width="39.59" height="39.59" fill="#f2bb98"/><path d="M 118.77 39.59 A 39.59 39.59 0 0 0 158.36 0 L 118.77 0" fill="#cbbe92"/><rect x="79.18" y="39.59" width="39.59" height="39.59" fill="#8c6e0e"/><path d="M 79.18 79.18 A 39.59 39.59 0 0 1  118.77000000000001 39.59 L 118.77000000000001 79.18" fill="#e88447"/><rect x="118.77" y="39.59" width="39.59" height="39.59" fill="#d7cdab"/><path d="M 118.77 39.59 A 39.59 39.59 0 0 1 158.36 79.18 L 118.77 79.18" fill="#f8dbc9"/><rect x="158.36" y="0" width="79.18" height="79.18" fill="#fffdfc"/><rect x="158.36" y="0" width="79.18" height="79.18" fill="#e8e2cf"/><rect x="237.54" y="0" width="79.18" height="79.18" fill="#bdac74"/><path d="M 237.54 79.18 A 79.18 79.18 0 0 1  316.72 0 L 316.72 79.18" fill="#e2661a"/><rect x="316.71" y="0" width="79.18" height="79.18" fill="#ec9a67"/><path d="M 316.71 79.18 A 79.18 79.18 0 0 1  395.89 0 L 395.89 79.18" fill="#f1b692"/><rect x="395.89285714285717" y="0" width="79.17857142857143" height="79.17857142857143" fill="#ffffff"/><rect x="395.89" y="0" width="39.59" height="39.59" fill="#ad9854"/><polygon points="435.48,0 435.48,39.59 395.89,39.59" fill="#b5a264"/><rect x="435.48" y="0" width="39.59" height="39.59" fill="#ec9c6b"/><polygon points="435.48,0 475.07000000000005,39.59 435.48,39.59" fill="#fcede4"/><rect x="395.89" y="39.59" width="39.59" height="39.59" fill="#f8d9c6"/><polygon points="395.89,39.59 435.48,39.59 435.48,79.18" fill="#faf9f5"/><rect x="435.48" y="39.59" width="39.59" height="39.59" fill="#c9bc8f"/><polygon points="435.48,39.59 475.07000000000005,39.59 435.48,79.18" fill="#e36b21"/><rect x="475.07" y="0" width="79.18" height="79.18" fill="#ec9a68"/><rect x="475.07" y="0" width="79.18" height="79.18" fill="#e88447"/><rect x="554.25" y="0" width="79.17857142857143" height="79.17857142857143" fill="#ffffff"/><rect x="554.25" y="0" width="39.59" height="39.59" fill="#f6cfb8"/><path d="M 554.25 0 A 39.59 39.59 0 0 1 593.84 39.59 L 554.25 39.59" fill="#967c25"/><rect x="593.84" y="0" width="39.59" height="39.59" fill="#f8f6f0"/><path d="M 593.84 39.59 A 39.59 39.59 0 0 1  633.4300000000001 0 L 633.4300000000001 39.59" fill="#fdfcfa"/><rect x="554.25" y="39.59" width="39.59" height="39.59" fill="#f5c8ac"/><path d="M 554.25 79.18 A 39.59 39.59 0 0 0 593.84 39.59 L 554.25 39.59" fill="#cec198"/><rect x="593.84" y="39.59" width="39.59" height="39.59" fill="#e2dbc2"/><path d="M 593.84 39.59 A 39.59 39.59 0 0 0 633.4300000000001 79.18 L 633.4300000000001 39.59" fill="#896b09"/><rect x="633.43" y="0" width="79.18" height="79.18" fill="#e77f3f"/><polygon points="633.43,0 712.6099999999999,0 712.6099999999999,79.18" fill="#fae4d7"/><rect x="712.6071428571429" y="0" width="79.17857142857143" height="79.17857142857143" fill="#ffffff"/><rect x="712.61" y="0" width="39.59" height="39.59" fill="#d2c6a0"/><path d="M 712.61 39.59 A 39.59 39.59 0 0 1  752.2 0 L 752.2 39.59" fill="#8b6d0c"/><rect x="752.2" y="0" width="39.59" height="39.59" fill="#ea8d54"/><path d="M 752.2 0 A 39.59 39.59 0 0 1 791.7900000000001 39.59 L 752.2 39.59" fill="#a9934b"/><rect x="712.61" y="39.59" width="39.59" height="39.59" fill="#ea8d55"/><path d="M 712.61 39.59 A 39.59 39.59 0 0 0 752.2 79.18 L 752.2 39.59" fill="#b5a365"/><rect x="752.2" y="39.59" width="39.59" height="39.59" fill="#fae7db"/><path d="M 752.2 79.18 A 39.59 39.59 0 0 0 791.7900000000001 39.59 L 752.2 39.59" fill="#fefaf7"/><rect x="791.79" y="0" width="79.18" height="79.18" fill="#f5f3ea"/><path d="M 791.79 79.18 A 79.18 79.18 0 0 1  870.97 0 L 791.79 79.18 A 79.18 79.18 0 0 0 870.97 0" fill="#cdc197"/><rect x="870.96" y="0" width="79.18" height="79.18" fill="#f4f2e9"/><path d="M 870.96 0 A 79.18 79.18 0 0 1 950.1400000000001 79.18 L 870.96 79.18" fill="#eee9db"/><rect x="0" y="79.17857142857143" width="79.17857142857143" height="79.17857142857143" fill="#ffffff"/><rect x="0" y="79.18" width="39.59" height="39.59" fill="#e36a1f"/><polygon points="39.59,79.18 39.59,118.77000000000001 0,118.77000000000001" fill="#eb9763"/><rect x="39.59" y="79.18" width="39.59" height="39.59" fill="#d1c59e"/><polygon points="39.59,79.18 79.18,118.77000000000001 39.59,118.77000000000001" fill="#dcd3b6"/><rect x="0" y="118.77" width="39.59" height="39.59" fill="#eb9763"/><polygon points="0,118.77 39.59,118.77 0,158.36" fill="#9d8533"/><rect x="39.59" y="118.77" width="39.59" height="39.59" fill="#fcfbf9"/><polygon points="39.59,118.77 79.18,118.77 79.18,158.36" fill="#ec9b69"/><rect x="79.18" y="79.18" width="79.18" height="79.18" fill="#e46d24"/><polygon points="79.18,79.18 158.36,158.36 79.18,158.36" fill="#efa97e"/><rect x="158.36" y="79.18" width="79.18" height="79.18" fill="#ea915a"/><polygon points="158.36,79.18 237.54000000000002,158.36 158.36,158.36" fill="#a79147"/><rect x="237.53571428571428" y="79.17857142857143" width="79.17857142857143" height="79.17857142857143" fill="#ffffff"/><rect x="237.54" y="79.18" width="39.59" height="39.59" fill="#fdf4ee"/><polygon points="277.13,79.18 277.13,118.77000000000001 237.54,118.77000000000001" fill="#c3b482"/><rect x="277.13" y="79.18" width="39.59" height="39.59" fill="#e9e3d1"/><polygon points="277.13,79.18 316.72,118.77000000000001 277.13,118.77000000000001" fill="#f1b591"/><rect x="237.54" y="118.77" width="39.59" height="39.59" fill="#eb935d"/><polygon points="237.54,118.77 277.13,118.77 277.13,158.36" fill="#ec9a67"/><rect x="277.13" y="118.77" width="39.59" height="39.59" fill="#d0c59e"/><polygon points="277.13,118.77 316.72,118.77 277.13,158.36" fill="#9a802b"/><rect x="316.7142857142857" y="79.17857142857143" width="79.17857142857143" height="79.17857142857143" fill="#ffffff"/><rect x="316.71" y="79.18" width="39.59" height="39.59" fill="#ea9059"/><polygon points="356.29999999999995,79.18 356.29999999999995,118.77000000000001 316.71,118.77000000000001" fill="#e8874b"/><rect x="356.3" y="79.18" width="39.59" height="39.59" fill="#efaa7f"/><polygon points="356.3,79.18 395.89,118.77000000000001 356.3,118.77000000000001" fill="#b6a467"/><rect x="316.71" y="118.77" width="39.59" height="39.59" fill="#f8dcca"/><polygon points="316.71,118.77 356.29999999999995,118.77 356.29999999999995,158.36" fill="#8e7113"/><rect x="356.3" y="118.77" width="39.59" height="39.59" fill="#f9f7f2"/><polygon points="356.3,118.77 395.89,118.77 356.3,158.36" fill="#d6ccaa"/><rect x="395.89285714285717" y="79.17857142857143" width="79.17857142857143" height="79.17857142857143" fill="#ffffff"/><rect x="395.89" y="79.18" width="39.59" height="39.59" fill="#f3c2a3"/><polygon points="435.48,79.18 435.48,118.77000000000001 395.89,118.77000000000001" fill="#eda172"/><rect x="435.48" y="79.18" width="39.59" height="39.59" fill="#a08838"/><polygon points="435.48,79.18 475.07000000000005,79.18 435.48,118.77000000000001" fill="#f5ccb3"/><rect x="395.89" y="118.77" width="39.59" height="39.59" fill="#c5b685"/><polygon points="395.89,118.77 435.48,118.77 435.48,158.36" fill="#efac83"/><rect x="435.48" y="118.77" width="39.59" height="39.59" fill="#e88447"/><polygon points="435.48,118.77 475.07000000000005,158.36 435.48,158.36" fill="#9a812d"/><rect x="475.07" y="79.18" width="79.18" height="79.18" fill="#eeeadc"/><polygon points="554.25,79.18 554.25,158.36 475.07,158.36" fill="#94781f"/><rect x="554.25" y="79.17857142857143" width="79.17857142857143" height="79.17857142857143" fill="#ffffff"/><rect x="554.25" y="79.18" width="39.59" height="39.59" fill="#f8dac8"/><circle cx="574.045" cy="98.97500000000001" r="19.795" fill="#f1b691"/><rect x="593.84" y="79.18" width="39.59" height="39.59" fill="#e46d24"/><rect x="593.84" y="79.18" width="39.59" height="39.59" fill="#cdc096"/><rect x="554.25" y="118.77" width="39.59" height="39.59" fill="#f8dccb"/><circle cx="574.045" cy="138.565" r="19.795" fill="#cfc39b"/><rect x="593.84" y="118.77" width="39.59" height="39.59" fill="#b29f5e"/><rect x="593.84" y="118.77" width="39.59" height="39.59" fill="#b19d5c"/><rect x="633.4285714285714" y="79.17857142857143" width="79.17857142857143" height="79.17857142857143" fill="#ffffff"/><rect x="633.43" y="79.18" width="39.59" height="39.59" fill="#f7d5c0"/><path d="M 633.43 118.77000000000001 A 39.59 39.59 0 0 1 673.02 79.18 L 673.02 89.07750000000001 A 29.692500000000003 29.692500000000003 0 0 0 643.3275 118.77000000000001" fill="#f9f8f3"/><rect x="673.02" y="79.18" width="39.59" height="39.59" fill="#d0c49d"/><path d="M 673.02 79.18 A 39.59 39.59 0 0 1 712.61 118.77000000000001 L 702.7125 118.77000000000001 A 29.692500000000003 29.692500000000003 0 0 0 673.02 89.07750000000001" fill="#eb9764"/><rect x="633.43" y="118.77" width="39.59" height="39.59" fill="#e0d8be"/><path d="M 633.43 118.77 A 39.59 39.59 0 0 0 673.02 158.36 L 673.02 148.4625 A 29.692500000000003 29.692500000000003 0 0 1 643.3275 118.77" fill="#c0af7a"/><rect x="673.02" y="118.77" width="39.59" height="39.59" fill="#e88548"/><path d="M 673.02 158.36 A 39.59 39.59 0 0 0 712.61 118.77 L 702.7125 118.77 A 29.692500000000003 29.692500000000003 0 0 1 673.02 148.4625" fill="#efa87c"/><rect x="712.61" y="79.18" width="79.18" height="79.18" fill="#99802b"/><path d="M 712.61 158.36 A 79.18 79.18 0 0 0 791.79 79.18 L 712.61 79.18" fill="#8f7215"/><rect x="791.79" y="79.18" width="79.18" height="79.18" fill="#fdfcfb"/><rect x="791.79" y="79.18" width="79.18" height="79.18" fill="#f1b48f"/><rect x="870.9642857142858" y="79.17857142857143" width="79.17857142857143" height="79.17857142857143" fill="#ffffff"/><rect x="870.96" y="79.18" width="39.59" height="39.59" fill="#efac82"/><path d="M 870.96 79.18 A 39.59 39.59 0 0 1 910.5500000000001 118.77000000000001 L 870.96 118.77000000000001" fill="#e88547"/><rect x="910.55" y="79.18" width="39.59" height="39.59" fill="#ea915b"/><path d="M 910.55 118.77000000000001 A 39.59 39.59 0 0 1  950.14 79.18 L 950.14 118.77000000000001" fill="#886a06"/><rect x="870.96" y="118.77" width="39.59" height="39.59" fill="#efebde"/><path d="M 870.96 158.36 A 39.59 39.59 0 0 0 910.5500000000001 118.77 L 870.96 118.77" fill="#e8e2cf"/><rect x="910.55" y="118.77" width="39.59" height="39.59" fill="#fcede4"/><path d="M 910.55 118.77 A 39.59 39.59 0 0 0 950.14 158.36 L 950.14 118.77" fill="#f9dfcf"/><rect x="0" y="158.35714285714286" width="79.17857142857143" height="79.17857142857143" fill="#ffffff"/><rect x="0" y="158.36" width="39.59" height="39.59" fill="#a8924a"/><polygon points="39.59,158.36 39.59,197.95000000000002 0,197.95000000000002" fill="#9d8433"/><rect x="39.59" y="158.36" width="39.59" height="39.59" fill="#e36c23"/><polygon points="39.59,158.36 79.18,158.36 39.59,197.95000000000002" fill="#e1dac1"/><rect x="0" y="197.95" width="39.59" height="39.59" fill="#fae2d4"/><polygon points="0,197.95 39.59,197.95 39.59,237.54" fill="#bfaf79"/><rect x="39.59" y="197.95" width="39.59" height="39.59" fill="#baa86f"/><polygon points="39.59,197.95 79.18,237.54 39.59,237.54" fill="#f2bc9b"/><rect x="79.17857142857143" y="158.35714285714286" width="79.17857142857143" height="79.17857142857143" fill="#ffffff"/><rect x="79.18" y="158.36" width="39.59" height="39.59" fill="#ed9f70"/><path d="M 79.18 158.36 A 39.59 39.59 0 0 0 118.77000000000001 197.95000000000002 L 118.77000000000001 158.36" fill="#c2b27f"/><rect x="118.77" y="158.36" width="39.59" height="39.59" fill="#e1dac1"/><path d="M 118.77 197.95000000000002 A 39.59 39.59 0 0 0 158.36 158.36 L 118.77 158.36" fill="#e36d23"/><rect x="79.18" y="197.95" width="39.59" height="39.59" fill="#eda172"/><path d="M 79.18 237.54 A 39.59 39.59 0 0 1  118.77000000000001 197.95 L 118.77000000000001 237.54" fill="#a79147"/><rect x="118.77" y="197.95" width="39.59" height="39.59" fill="#f5cbb1"/><path d="M 118.77 197.95 A 39.59 39.59 0 0 1 158.36 237.54 L 118.77 237.54" fill="#967b23"/><rect x="158.35714285714286" y="158.35714285714286" width="79.17857142857143" height="79.17857142857143" fill="#ffffff"/><rect x="158.36" y="158.36" width="39.59" height="39.59" fill="#eda172"/><polygon points="197.95000000000002,158.36 197.95000000000002,197.95000000000002 158.36,197.95000000000002" fill="#f1b590"/><rect x="197.95" y="158.36" width="39.59" height="39.59" fill="#a1893a"/><polygon points="197.95,158.36 237.54,158.36 197.95,197.95000000000002" fill="#fceee6"/><rect x="158.36" y="197.95" width="39.59" height="39.59" fill="#e78040"/><polygon points="158.36,197.95 197.95000000000002,197.95 197.95000000000002,237.54" fill="#baa86e"/><rect x="197.95" y="197.95" width="39.59" height="39.59" fill="#8a6c0a"/><polygon points="197.95,197.95 237.54,237.54 197.95,237.54" fill="#d3c8a4"/><rect x="237.53571428571428" y="158.35714285714286" width="79.17857142857143" height="79.17857142857143" fill="#ffffff"/><rect x="237.54" y="158.36" width="39.59" height="39.59" fill="#e67b38"/><path d="M 237.54 197.95000000000002 A 39.59 39.59 0 0 1 277.13 158.36 L 277.13 168.25750000000002 A 29.692500000000003 29.692500000000003 0 0 0 247.4375 197.95000000000002" fill="#f1b28c"/><rect x="277.13" y="158.36" width="39.59" height="39.59" fill="#eda172"/><path d="M 277.13 158.36 A 39.59 39.59 0 0 1 316.72 197.95000000000002 L 306.8225 197.95000000000002 A 29.692500000000003 29.692500000000003 0 0 0 277.13 168.25750000000002" fill="#d8ceae"/><rect x="237.54" y="197.95" width="39.59" height="39.59" fill="#b39f5f"/><path d="M 237.54 197.95 A 39.59 39.59 0 0 0 277.13 237.54 L 277.13 227.64249999999998 A 29.692500000000003 29.692500000000003 0 0 1 247.4375 197.95" fill="#fbe9de"/><rect x="277.13" y="197.95" width="39.59" height="39.59" fill="#a89249"/><path d="M 277.13 237.54 A 39.59 39.59 0 0 0 316.72 197.95 L 306.8225 197.95 A 29.692500000000003 29.692500000000003 0 0 1 277.13 227.64249999999998" fill="#ede8d9"/><rect x="316.71" y="158.36" width="79.18" height="79.18" fill="#f7d4bf"/><rect x="316.71" y="158.36" width="79.18" height="79.18" fill="#f1b590"/><rect x="395.89285714285717" y="158.35714285714286" width="79.17857142857143" height="79.17857142857143" fill="#ffffff"/><rect x="395.89" y="158.36" width="39.59" height="39.59" fill="#f1b793"/><polygon points="435.48,158.36 435.48,197.95000000000002 395.89,197.95000000000002" fill="#e88446"/><rect x="435.48" y="158.36" width="39.59" height="39.59" fill="#ede9da"/><polygon points="435.48,158.36 475.07000000000005,197.95000000000002 435.48,197.95000000000002" fill="#a1893b"/><rect x="395.89" y="197.95" width="39.59" height="39.59" fill="#e46f27"/><polygon points="395.89,197.95 435.48,197.95 395.89,237.54" fill="#ea8f57"/><rect x="435.48" y="197.95" width="39.59" height="39.59" fill="#ffffff"/><polygon points="435.48,197.95 475.07000000000005,197.95 475.07000000000005,237.54" fill="#efebde"/><rect x="475.07142857142856" y="158.35714285714286" width="79.17857142857143" height="79.17857142857143" fill="#ffffff"/><rect x="475.07" y="158.36" width="39.59" height="39.59" fill="#ebe6d6"/><circle cx="494.865" cy="178.15500000000003" r="19.795" fill="#e57733"/><rect x="514.66" y="158.36" width="39.59" height="39.59" fill="#f2bb98"/><rect x="514.66" y="158.36" width="39.59" height="39.59" fill="#b29e5d"/><rect x="475.07" y="197.95" width="39.59" height="39.59" fill="#f9f7f2"/><circle cx="494.865" cy="217.745" r="19.795" fill="#c2b27f"/><rect x="514.66" y="197.95" width="39.59" height="39.59" fill="#f5cab0"/><rect x="514.66" y="197.95" width="39.59" height="39.59" fill="#b29e5e"/><rect x="554.25" y="158.35714285714286" width="79.17857142857143" height="79.17857142857143" fill="#ffffff"/><rect x="554.25" y="158.36" width="39.59" height="39.59" fill="#fdf7f2"/><polygon points="593.84,158.36 593.84,197.95000000000002 554.25,197.95000000000002" fill="#cdc096"/><rect x="593.84" y="158.36" width="39.59" height="39.59" fill="#f7f6ef"/><polygon points="593.84,158.36 633.4300000000001,197.95000000000002 593.84,197.95000000000002" fill="#bdac74"/><rect x="554.25" y="197.95" width="39.59" height="39.59" fill="#aa944d"/><polygon points="554.25,197.95 593.84,197.95 593.84,237.54" fill="#fefbf9"/><rect x="593.84" y="197.95" width="39.59" height="39.59" fill="#a1893a"/><polygon points="593.84,197.95 633.4300000000001,197.95 593.84,237.54" fill="#e98a4f"/><rect x="633.4285714285714" y="158.35714285714286" width="79.17857142857143" height="79.17857142857143" fill="#ffffff"/><rect x="633.43" y="158.36" width="39.59" height="39.59" fill="#f2ba97"/><polygon points="673.02,158.36 673.02,197.95000000000002 633.43,197.95000000000002" fill="#e9884c"/><rect x="673.02" y="158.36" width="39.59" height="39.59" fill="#93781e"/><polygon points="673.02,158.36 712.61,197.95000000000002 673.02,197.95000000000002" fill="#f9f8f3"/><rect x="633.43" y="197.95" width="39.59" height="39.59" fill="#856701"/><polygon points="633.43,197.95 673.02,197.95 633.43,237.54" fill="#8c6f0f"/><rect x="673.02" y="197.95" width="39.59" height="39.59" fill="#ab954e"/><polygon points="673.02,197.95 712.61,197.95 712.61,237.54" fill="#e0d8be"/><rect x="712.6071428571429" y="158.35714285714286" width="79.17857142857143" height="79.17857142857143" fill="#ffffff"/><rect x="712.61" y="158.36" width="39.59" height="39.59" fill="#e8874b"/><polygon points="752.2,158.36 752.2,197.95000000000002 712.61,197.95000000000002" fill="#fdfcfa"/><rect x="752.2" y="158.36" width="39.59" height="39.59" fill="#f6d1ba"/><polygon points="752.2,158.36 791.7900000000001,197.95000000000002 752.2,197.95000000000002" fill="#896b09"/><rect x="712.61" y="197.95" width="39.59" height="39.59" fill="#ed9e6e"/><polygon points="712.61,197.95 752.2,197.95 712.61,237.54" fill="#fef8f4"/><rect x="752.2" y="197.95" width="39.59" height="39.59" fill="#d1c59f"/><polygon points="752.2,197.95 791.7900000000001,197.95 791.7900000000001,237.54" fill="#8f7316"/><rect x="791.79" y="158.36" width="79.18" height="79.18" fill="#bbaa72"/><path d="M 791.79 237.54000000000002 A 79.18 79.18 0 0 0 870.97 158.36 L 791.79 158.36" fill="#b9a76c"/><rect x="870.96" y="158.36" width="79.18" height="79.18" fill="#fae7da"/><rect x="870.96" y="158.36" width="79.18" height="79.18" fill="#ece7d7"/><rect x="0" y="237.53571428571428" width="79.17857142857143" height="79.17857142857143" fill="#ffffff"/><rect x="0" y="237.54" width="39.59" height="39.59" fill="#fae4d6"/><path d="M 0 277.13 A 39.59 39.59 0 0 1 39.59 237.54 L 39.59 247.4375 A 29.692500000000003 29.692500000000003 0 0 0 9.8975 277.13" fill="#917518"/><rect x="39.59" y="237.54" width="39.59" height="39.59" fill="#eb9560"/><path d="M 39.59 237.54 A 39.59 39.59 0 0 1 79.18 277.13 L 69.2825 277.13 A 29.692500000000003 29.692500000000003 0 0 0 39.59 247.4375" fill="#eae5d4"/><rect x="0" y="277.13" width="39.59" height="39.59" fill="#e1d9bf"/><path d="M 0 277.13 A 39.59 39.59 0 0 0 39.59 316.72 L 39.59 306.8225 A 29.692500000000003 29.692500000000003 0 0 1 9.8975 277.13" fill="#e98c53"/><rect x="39.59" y="277.13" width="39.59" height="39.59" fill="#f6ceb5"/><path d="M 39.59 316.72 A 39.59 39.59 0 0 0 79.18 277.13 L 69.2825 277.13 A 29.692500000000003 29.692500000000003 0 0 1 39.59 306.8225" fill="#f3f0e6"/><rect x="79.17857142857143" y="237.53571428571428" width="79.17857142857143" height="79.17857142857143" fill="#ffffff"/><rect x="79.18" y="237.54" width="39.59" height="39.59" fill="#896a07"/><path d="M 79.18 277.13 A 39.59 39.59 0 0 0 118.77000000000001 237.54 L 79.18 237.54" fill="#ede8d9"/><rect x="118.77" y="237.54" width="39.59" height="39.59" fill="#ab9650"/><path d="M 118.77 237.54 A 39.59 39.59 0 0 0 158.36 277.13 L 158.36 237.54" fill="#f4c4a6"/><rect x="79.18" y="277.13" width="39.59" height="39.59" fill="#dad0b1"/><path d="M 79.18 277.13 A 39.59 39.59 0 0 1 118.77000000000001 316.72 L 79.18 316.72" fill="#e4722b"/><rect x="118.77" y="277.13" width="39.59" height="39.59" fill="#a8924a"/><path d="M 118.77 316.72 A 39.59 39.59 0 0 1  158.36 277.13 L 158.36 316.72" fill="#ea8e55"/><rect x="158.35714285714286" y="237.53571428571428" width="79.17857142857143" height="79.17857142857143" fill="#ffffff"/><rect x="158.36" y="237.54" width="39.59" height="39.59" fill="#a58e43"/><path d="M 158.36 237.54 A 39.59 39.59 0 0 0 197.95000000000002 277.13 L 197.95000000000002 237.54" fill="#f3bf9f"/><rect x="197.95" y="237.54" width="39.59" height="39.59" fill="#e9884d"/><path d="M 197.95 277.13 A 39.59 39.59 0 0 0 237.54 237.54 L 197.95 237.54" fill="#fbe9de"/><rect x="158.36" y="277.13" width="39.59" height="39.59" fill="#fbeae0"/><path d="M 158.36 316.72 A 39.59 39.59 0 0 1  197.95000000000002 277.13 L 197.95000000000002 316.72" fill="#fbece2"/><rect x="197.95" y="277.13" width="39.59" height="39.59" fill="#f2ba97"/><path d="M 197.95 277.13 A 39.59 39.59 0 0 1 237.54 316.72 L 197.95 316.72" fill="#eea77b"/><rect x="237.54" y="237.54" width="79.18" height="79.18" fill="#8d7011"/><polygon points="316.72,237.54 316.72,316.72 237.54,316.72" fill="#e6dfca"/><rect x="316.71" y="237.54" width="79.18" height="79.18" fill="#fef9f6"/><polygon points="316.71,237.54 395.89,237.54 395.89,316.72" fill="#fef7f4"/><rect x="395.89285714285717" y="237.53571428571428" width="79.17857142857143" height="79.17857142857143" fill="#ffffff"/><rect x="395.89" y="237.54" width="39.59" height="39.59" fill="#efaa80"/><path d="M 395.89 277.13 A 39.59 39.59 0 0 1  435.48 237.54 L 435.48 277.13" fill="#ed9d6d"/><rect x="435.48" y="237.54" width="39.59" height="39.59" fill="#f2bd9b"/><path d="M 435.48 237.54 A 39.59 39.59 0 0 1 475.07000000000005 277.13 L 435.48 277.13" fill="#e67936"/><rect x="395.89" y="277.13" width="39.59" height="39.59" fill="#fae6d9"/><path d="M 395.89 277.13 A 39.59 39.59 0 0 0 435.48 316.72 L 435.48 277.13" fill="#f9f7f2"/><rect x="435.48" y="277.13" width="39.59" height="39.59" fill="#a58f44"/><path d="M 435.48 316.72 A 39.59 39.59 0 0 0 475.07000000000005 277.13 L 435.48 277.13" fill="#ea8d54"/><rect x="475.07" y="237.54" width="79.18" height="79.18" fill="#e78143"/><rect x="475.07" y="237.54" width="79.18" height="79.18" fill="#beae78"/><rect x="554.25" y="237.53571428571428" width="79.17857142857143" height="79.17857142857143" fill="#ffffff"/><rect x="554.25" y="237.54" width="39.59" height="39.59" fill="#917519"/><polygon points="593.84,237.54 593.84,277.13 554.25,277.13" fill="#f2efe4"/><rect x="593.84" y="237.54" width="39.59" height="39.59" fill="#a18a3b"/><polygon points="593.84,237.54 633.4300000000001,277.13 593.84,277.13" fill="#c5b686"/><rect x="554.25" y="277.13" width="39.59" height="39.59" fill="#eea77c"/><polygon points="554.25,277.13 593.84,277.13 593.84,316.72" fill="#f1b691"/><rect x="593.84" y="277.13" width="39.59" height="39.59" fill="#a48d40"/><polygon points="593.84,277.13 633.4300000000001,277.13 593.84,316.72" fill="#f0b089"/><rect x="633.4285714285714" y="237.53571428571428" width="79.17857142857143" height="79.17857142857143" fill="#ffffff"/><rect x="633.43" y="237.54" width="39.59" height="39.59" fill="#9d8433"/><circle cx="653.2249999999999" cy="257.335" r="19.795" fill="#e2dbc2"/><rect x="673.02" y="237.54" width="39.59" height="39.59" fill="#e46e26"/><rect x="673.02" y="237.54" width="39.59" height="39.59" fill="#ede9da"/><rect x="633.43" y="277.13" width="39.59" height="39.59" fill="#eea578"/><circle cx="653.2249999999999" cy="296.925" r="19.795" fill="#f6d0b8"/><rect x="673.02" y="277.13" width="39.59" height="39.59" fill="#e9e3d0"/><rect x="673.02" y="277.13" width="39.59" height="39.59" fill="#b6a366"/><rect x="712.61" y="237.54" width="79.18" height="79.18" fill="#f1b590"/><polygon points="712.61,237.54 791.79,237.54 791.79,316.72" fill="#ed9e6e"/><rect x="791.79" y="237.54" width="79.18" height="79.18" fill="#ea9059"/><polygon points="791.79,237.54 870.97,237.54 870.97,316.72" fill="#c8ba8b"/><rect x="870.96" y="237.54" width="79.18" height="79.18" fill="#e9e3d1"/><path d="M 870.96 316.72 A 79.18 79.18 0 0 1  950.1400000000001 237.54 L 870.96 316.72 A 79.18 79.18 0 0 0 950.1400000000001 237.54" fill="#d3c8a4"/><rect x="0" y="316.7142857142857" width="79.17857142857143" height="79.17857142857143" fill="#ffffff"/><rect x="0" y="316.71" width="39.59" height="39.59" fill="#ddd4b7"/><path d="M 0 356.29999999999995 A 39.59 39.59 0 0 1 39.59 316.71 L 39.59 326.60749999999996 A 29.692500000000003 29.692500000000003 0 0 0 9.8975 356.29999999999995" fill="#f8d7c4"/><rect x="39.59" y="316.71" width="39.59" height="39.59" fill="#e67936"/><path d="M 39.59 316.71 A 39.59 39.59 0 0 1 79.18 356.29999999999995 L 69.2825 356.29999999999995 A 29.692500000000003 29.692500000000003 0 0 0 39.59 326.60749999999996" fill="#efebde"/><rect x="0" y="356.3" width="39.59" height="39.59" fill="#967b23"/><path d="M 0 356.3 A 39.59 39.59 0 0 0 39.59 395.89 L 39.59 385.9925 A 29.692500000000003 29.692500000000003 0 0 1 9.8975 356.3" fill="#ebe6d5"/><rect x="39.59" y="356.3" width="39.59" height="39.59" fill="#e0d8be"/><path d="M 39.59 395.89 A 39.59 39.59 0 0 0 79.18 356.3 L 69.2825 356.3 A 29.692500000000003 29.692500000000003 0 0 1 39.59 385.9925" fill="#ad9853"/><rect x="79.18" y="316.71" width="79.18" height="79.18" fill="#fae6da"/><polygon points="79.18,316.71 158.36,316.71 79.18,395.89" fill="#ede8d9"/><rect x="158.35714285714286" y="316.7142857142857" width="79.17857142857143" height="79.17857142857143" fill="#ffffff"/><rect x="158.36" y="316.71" width="39.59" height="39.59" fill="#ddd5b9"/><path d="M 158.36 316.71 A 39.59 39.59 0 0 1 197.95000000000002 356.29999999999995 L 158.36 356.29999999999995" fill="#c9bb8d"/><rect x="197.95" y="316.71" width="39.59" height="39.59" fill="#dfd7bd"/><path d="M 197.95 356.29999999999995 A 39.59 39.59 0 0 1  237.54 316.71 L 237.54 356.29999999999995" fill="#8f7316"/><rect x="158.36" y="356.3" width="39.59" height="39.59" fill="#fffcfb"/><path d="M 158.36 395.89 A 39.59 39.59 0 0 0 197.95000000000002 356.3 L 158.36 356.3" fill="#f6d2bb"/><rect x="197.95" y="356.3" width="39.59" height="39.59" fill="#aa944d"/><path d="M 197.95 356.3 A 39.59 39.59 0 0 0 237.54 395.89 L 237.54 356.3" fill="#f3bf9e"/><rect x="237.54" y="316.71" width="79.18" height="79.18" fill="#e46e25"/><polygon points="237.54,316.71 316.72,395.89 237.54,395.89" fill="#c7b889"/><rect x="316.71" y="316.71" width="79.18" height="79.18" fill="#a28a3d"/><path d="M 316.71 395.89 A 79.18 79.18 0 0 1  395.89 316.71 L 395.89 395.89" fill="#eea476"/><rect x="395.89285714285717" y="316.7142857142857" width="79.17857142857143" height="79.17857142857143" fill="#ffffff"/><rect x="395.89" y="316.71" width="39.59" height="39.59" fill="#e67936"/><path d="M 395.89 316.71 A 39.59 39.59 0 0 1 435.48 356.29999999999995 L 395.89 356.29999999999995" fill="#f0b089"/><rect x="435.48" y="316.71" width="39.59" height="39.59" fill="#eb955f"/><path d="M 435.48 356.29999999999995 A 39.59 39.59 0 0 1  475.07000000000005 316.71 L 475.07000000000005 356.29999999999995" fill="#fcefe7"/><rect x="395.89" y="356.3" width="39.59" height="39.59" fill="#ece7d6"/><path d="M 395.89 395.89 A 39.59 39.59 0 0 0 435.48 356.3 L 395.89 356.3" fill="#a28b3d"/><rect x="435.48" y="356.3" width="39.59" height="39.59" fill="#ed9e6e"/><path d="M 435.48 356.3 A 39.59 39.59 0 0 0 475.07000000000005 395.89 L 475.07000000000005 356.3" fill="#b3a061"/><rect x="475.07" y="316.71" width="79.18" height="79.18" fill="#b19e5d"/><rect x="475.07" y="316.71" width="79.18" height="79.18" fill="#eb9662"/><rect x="554.25" y="316.7142857142857" width="79.17857142857143" height="79.17857142857143" fill="#ffffff"/><rect x="554.25" y="316.71" width="39.59" height="39.59" fill="#e8874b"/><polygon points="593.84,316.71 593.84,356.29999999999995 554.25,356.29999999999995" fill="#8c6f10"/><rect x="593.84" y="316.71" width="39.59" height="39.59" fill="#e9894e"/><polygon points="593.84,316.71 633.4300000000001,356.29999999999995 593.84,356.29999999999995" fill="#baa86e"/><rect x="554.25" y="356.3" width="39.59" height="39.59" fill="#efaa7f"/><polygon points="554.25,356.3 593.84,356.3 554.25,395.89" fill="#8f7214"/><rect x="593.84" y="356.3" width="39.59" height="39.59" fill="#fcf0e9"/><polygon points="593.84,356.3 633.4300000000001,356.3 633.4300000000001,395.89" fill="#ec9c6b"/><rect x="633.43" y="316.71" width="79.18" height="79.18" fill="#e4ddc7"/><rect x="633.43" y="316.71" width="79.18" height="79.18" fill="#e98d53"/><rect x="712.61" y="316.71" width="79.18" height="79.18" fill="#e2671b"/><rect x="712.61" y="316.71" width="79.18" height="79.18" fill="#f6d0b8"/><rect x="791.7857142857143" y="316.7142857142857" width="79.17857142857143" height="79.17857142857143" fill="#ffffff"/><rect x="791.79" y="316.71" width="39.59" height="39.59" fill="#e8874c"/><path d="M 791.79 356.29999999999995 A 39.59 39.59 0 0 1  831.38 316.71 L 831.38 356.29999999999995" fill="#f3bf9f"/><rect x="831.38" y="316.71" width="39.59" height="39.59" fill="#f2b996"/><path d="M 831.38 316.71 A 39.59 39.59 0 0 1 870.97 356.29999999999995 L 831.38 356.29999999999995" fill="#b3a060"/><rect x="791.79" y="356.3" width="39.59" height="39.59" fill="#a69045"/><path d="M 791.79 356.3 A 39.59 39.59 0 0 0 831.38 395.89 L 831.38 356.3" fill="#e6dfca"/><rect x="831.38" y="356.3" width="39.59" height="39.59" fill="#b3a060"/><path d="M 831.38 395.89 A 39.59 39.59 0 0 0 870.97 356.3 L 831.38 356.3" fill="#e67d3c"/><rect x="870.9642857142858" y="316.7142857142857" width="79.17857142857143" height="79.17857142857143" fill="#ffffff"/><rect x="870.96" y="316.71" width="39.59" height="39.59" fill="#f9dfd0"/><polygon points="910.5500000000001,316.71 910.5500000000001,356.29999999999995 870.96,356.29999999999995" fill="#e36a20"/><rect x="910.55" y="316.71" width="39.59" height="39.59" fill="#977d26"/><polygon points="910.55,316.71 950.14,356.29999999999995 910.55,356.29999999999995" fill="#fbe7db"/><rect x="870.96" y="356.3" width="39.59" height="39.59" fill="#a68f45"/><polygon points="870.96,356.3 910.5500000000001,356.3 910.5500000000001,395.89" fill="#eea274"/><rect x="910.55" y="356.3" width="39.59" height="39.59" fill="#f8dac8"/><polygon points="910.55,356.3 950.14,356.3 910.55,395.89" fill="#b3a060"/><rect x="0" y="395.89" width="79.18" height="79.18" fill="#fae6d9"/><rect x="0" y="395.89" width="79.18" height="79.18" fill="#e4ddc7"/><rect x="79.18" y="395.89" width="79.18" height="79.18" fill="#a48d41"/><path d="M 79.18 475.07 A 79.18 79.18 0 0 1  158.36 395.89 L 158.36 475.07" fill="#bbaa71"/><rect x="158.36" y="395.89" width="79.18" height="79.18" fill="#e9894e"/><rect x="158.36" y="395.89" width="79.18" height="79.18" fill="#eea578"/><rect x="237.54" y="395.89" width="79.18" height="79.18" fill="#ec9a68"/><rect x="237.54" y="395.89" width="79.18" height="79.18" fill="#f9e1d1"/><rect x="316.7142857142857" y="395.89285714285717" width="79.17857142857143" height="79.17857142857143" fill="#ffffff"/><rect x="316.71" y="395.89" width="39.59" height="39.59" fill="#fefdfc"/><polygon points="356.29999999999995,395.89 356.29999999999995,435.48 316.71,435.48" fill="#efaa7f"/><rect x="356.3" y="395.89" width="39.59" height="39.59" fill="#e36a1f"/><polygon points="356.3,395.89 395.89,435.48 356.3,435.48" fill="#d9d0b0"/><rect x="316.71" y="435.48" width="39.59" height="39.59" fill="#efebdd"/><polygon points="316.71,435.48 356.29999999999995,435.48 356.29999999999995,475.07000000000005" fill="#f7d6c2"/><rect x="356.3" y="435.48" width="39.59" height="39.59" fill="#efac82"/><polygon points="356.3,435.48 395.89,435.48 356.3,475.07000000000005" fill="#f5ccb2"/><rect x="395.89285714285717" y="395.89285714285717" width="79.17857142857143" height="79.17857142857143" fill="#ffffff"/><rect x="395.89" y="395.89" width="39.59" height="39.59" fill="#f7d2bb"/><path d="M 395.89 435.48 A 39.59 39.59 0 0 1 435.48 395.89 L 435.48 405.78749999999997 A 29.692500000000003 29.692500000000003 0 0 0 405.78749999999997 435.48" fill="#93781e"/><rect x="435.48" y="395.89" width="39.59" height="39.59" fill="#ded6ba"/><path d="M 435.48 395.89 A 39.59 39.59 0 0 1 475.07000000000005 435.48 L 465.1725 435.48 A 29.692500000000003 29.692500000000003 0 0 0 435.48 405.78749999999997" fill="#d4caa6"/><rect x="395.89" y="435.48" width="39.59" height="39.59" fill="#fcf0e9"/><path d="M 395.89 435.48 A 39.59 39.59 0 0 0 435.48 475.07000000000005 L 435.48 465.1725 A 29.692500000000003 29.692500000000003 0 0 1 405.78749999999997 435.48" fill="#f0b088"/><rect x="435.48" y="435.48" width="39.59" height="39.59" fill="#ac9752"/><path d="M 435.48 475.07000000000005 A 39.59 39.59 0 0 0 475.07000000000005 435.48 L 465.1725 435.48 A 29.692500000000003 29.692500000000003 0 0 1 435.48 465.1725" fill="#f4f1e7"/><rect x="475.07142857142856" y="395.89285714285717" width="79.17857142857143" height="79.17857142857143" fill="#ffffff"/><rect x="475.07" y="395.89" width="39.59" height="39.59" fill="#ab964f"/><path d="M 475.07 435.48 A 39.59 39.59 0 0 1  514.66 395.89 L 514.66 435.48" fill="#fbeadf"/><rect x="514.66" y="395.89" width="39.59" height="39.59" fill="#a69045"/><path d="M 514.66 395.89 A 39.59 39.59 0 0 1 554.25 435.48 L 514.66 435.48" fill="#f8dccb"/><rect x="475.07" y="435.48" width="39.59" height="39.59" fill="#a8924a"/><path d="M 475.07 435.48 A 39.59 39.59 0 0 0 514.66 475.07000000000005 L 514.66 435.48" fill="#8f7316"/><rect x="514.66" y="435.48" width="39.59" height="39.59" fill="#e4ddc6"/><path d="M 514.66 475.07000000000005 A 39.59 39.59 0 0 0 554.25 435.48 L 514.66 435.48" fill="#dbd1b3"/><rect x="554.25" y="395.89" width="79.18" height="79.18" fill="#e77e3d"/><rect x="554.25" y="395.89" width="79.18" height="79.18" fill="#c3b381"/><rect x="633.4285714285714" y="395.89285714285717" width="79.17857142857143" height="79.17857142857143" fill="#ffffff"/><rect x="633.43" y="395.89" width="39.59" height="39.59" fill="#8e7112"/><path d="M 633.43 435.48 A 39.59 39.59 0 0 1 673.02 395.89 L 673.02 405.78749999999997 A 29.692500000000003 29.692500000000003 0 0 0 643.3275 435.48" fill="#eb9763"/><rect x="673.02" y="395.89" width="39.59" height="39.59" fill="#ccbf94"/><path d="M 673.02 395.89 A 39.59 39.59 0 0 1 712.61 435.48 L 702.7125 435.48 A 29.692500000000003 29.692500000000003 0 0 0 673.02 405.78749999999997" fill="#c0b07c"/><rect x="633.43" y="435.48" width="39.59" height="39.59" fill="#f9ddcd"/><path d="M 633.43 435.48 A 39.59 39.59 0 0 0 673.02 475.07000000000005 L 673.02 465.1725 A 29.692500000000003 29.692500000000003 0 0 1 643.3275 435.48" fill="#efa87d"/><rect x="673.02" y="435.48" width="39.59" height="39.59" fill="#e5742e"/><path d="M 673.02 475.07000000000005 A 39.59 39.59 0 0 0 712.61 435.48 L 702.7125 435.48 A 29.692500000000003 29.692500000000003 0 0 1 673.02 465.1725" fill="#f7d6c1"/><rect x="712.6071428571429" y="395.89285714285717" width="79.17857142857143" height="79.17857142857143" fill="#ffffff"/><rect x="712.61" y="395.89" width="39.59" height="39.59" fill="#fbe9dd"/><path d="M 712.61 435.48 A 39.59 39.59 0 0 1  752.2 395.89 L 752.2 435.48" fill="#f8d7c4"/><rect x="752.2" y="395.89" width="39.59" height="39.59" fill="#aa954e"/><path d="M 752.2 395.89 A 39.59 39.59 0 0 1 791.7900000000001 435.48 L 752.2 435.48" fill="#f9decd"/><rect x="712.61" y="435.48" width="39.59" height="39.59" fill="#f1b58f"/><path d="M 712.61 435.48 A 39.59 39.59 0 0 0 752.2 475.07000000000005 L 752.2 435.48" fill="#e98b51"/><rect x="752.2" y="435.48" width="39.59" height="39.59" fill="#9e8534"/><path d="M 752.2 475.07000000000005 A 39.59 39.59 0 0 0 791.7900000000001 435.48 L 752.2 435.48" fill="#ac9752"/><rect x="791.7857142857143" y="395.89285714285717" width="79.17857142857143" height="79.17857142857143" fill="#ffffff"/><rect x="791.79" y="395.89" width="39.59" height="39.59" fill="#bcac74"/><polygon points="831.38,395.89 831.38,435.48 791.79,435.48" fill="#a1893a"/><rect x="831.38" y="395.89" width="39.59" height="39.59" fill="#f9e1d3"/><polygon points="831.38,395.89 870.97,395.89 831.38,435.48" fill="#e78142"/><rect x="791.79" y="435.48" width="39.59" height="39.59" fill="#d9cfaf"/><polygon points="791.79,435.48 831.38,435.48 831.38,475.07000000000005" fill="#dcd4b7"/><rect x="831.38" y="435.48" width="39.59" height="39.59" fill="#ed9f70"/><polygon points="831.38,435.48 870.97,475.07000000000005 831.38,475.07000000000005" fill="#f2ba97"/><rect x="870.9642857142858" y="395.89285714285717" width="79.17857142857143" height="79.17857142857143" fill="#ffffff"/><rect x="870.96" y="395.89" width="39.59" height="39.59" fill="#a28a3c"/><path d="M 870.96 395.89 A 39.59 39.59 0 0 1 910.5500000000001 435.48 L 870.96 435.48" fill="#8f7315"/><rect x="910.55" y="395.89" width="39.59" height="39.59" fill="#b6a366"/><path d="M 910.55 435.48 A 39.59 39.59 0 0 1  950.14 395.89 L 950.14 435.48" fill="#c3b482"/><rect x="870.96" y="435.48" width="39.59" height="39.59" fill="#eae5d4"/><path d="M 870.96 475.07000000000005 A 39.59 39.59 0 0 0 910.5500000000001 435.48 L 870.96 435.48" fill="#e2671b"/><rect x="910.55" y="435.48" width="39.59" height="39.59" fill="#eea375"/><path d="M 910.55 435.48 A 39.59 39.59 0 0 0 950.14 475.07000000000005 L 950.14 435.48" fill="#e0d8bd"/><rect x="0" y="475.07142857142856" width="79.17857142857143" height="79.17857142857143" fill="#ffffff"/><rect x="0" y="475.07" width="39.59" height="39.59" fill="#f9f7f2"/><path d="M 0 514.66 A 39.59 39.59 0 0 1 39.59 475.07 L 39.59 484.9675 A 29.692500000000003 29.692500000000003 0 0 0 9.8975 514.66" fill="#e88446"/><rect x="39.59" y="475.07" width="39.59" height="39.59" fill="#e3681d"/><path d="M 39.59 475.07 A 39.59 39.59 0 0 1 79.18 514.66 L 69.2825 514.66 A 29.692500000000003 29.692500000000003 0 0 0 39.59 484.9675" fill="#fbe7dc"/><rect x="0" y="514.66" width="39.59" height="39.59" fill="#eeeadc"/><path d="M 0 514.66 A 39.59 39.59 0 0 0 39.59 554.25 L 39.59 544.3525 A 29.692500000000003 29.692500000000003 0 0 1 9.8975 514.66" fill="#8b6d0c"/><rect x="39.59" y="514.66" width="39.59" height="39.59" fill="#beae78"/><path d="M 39.59 554.25 A 39.59 39.59 0 0 0 79.18 514.66 L 69.2825 514.66 A 29.692500000000003 29.692500000000003 0 0 1 39.59 544.3525" fill="#fae3d4"/><rect x="79.18" y="475.07" width="79.18" height="79.18" fill="#f0b28b"/><rect x="79.18" y="475.07" width="79.18" height="79.18" fill="#e6dfca"/><rect x="158.36" y="475.07" width="79.18" height="79.18" fill="#d3c8a3"/><polygon points="158.36,475.07 237.54000000000002,475.07 237.54000000000002,554.25" fill="#d8ceae"/><rect x="237.53571428571428" y="475.07142857142856" width="79.17857142857143" height="79.17857142857143" fill="#ffffff"/><rect x="237.54" y="475.07" width="39.59" height="39.59" fill="#9f8736"/><circle cx="257.335" cy="494.865" r="19.795" fill="#bbaa71"/><rect x="277.13" y="475.07" width="39.59" height="39.59" fill="#ed9e6e"/><rect x="277.13" y="475.07" width="39.59" height="39.59" fill="#efab81"/><rect x="237.54" y="514.66" width="39.59" height="39.59" fill="#e9884d"/><circle cx="257.335" cy="534.4549999999999" r="19.795" fill="#f8f7f1"/><rect x="277.13" y="514.66" width="39.59" height="39.59" fill="#b29f5f"/><rect x="277.13" y="514.66" width="39.59" height="39.59" fill="#eea375"/><rect x="316.7142857142857" y="475.07142857142856" width="79.17857142857143" height="79.17857142857143" fill="#ffffff"/><rect x="316.71" y="475.07" width="39.59" height="39.59" fill="#ea8e55"/><polygon points="356.29999999999995,475.07 356.29999999999995,514.66 316.71,514.66" fill="#dcd3b5"/><rect x="356.3" y="475.07" width="39.59" height="39.59" fill="#eea477"/><polygon points="356.3,475.07 395.89,514.66 356.3,514.66" fill="#f9dfcf"/><rect x="316.71" y="514.66" width="39.59" height="39.59" fill="#f6cfb6"/><polygon points="316.71,514.66 356.29999999999995,514.66 356.29999999999995,554.25" fill="#f7d5c0"/><rect x="356.3" y="514.66" width="39.59" height="39.59" fill="#fdf4ef"/><polygon points="356.3,514.66 395.89,514.66 356.3,554.25" fill="#fefefd"/><rect x="395.89285714285717" y="475.07142857142856" width="79.17857142857143" height="79.17857142857143" fill="#ffffff"/><rect x="395.89" y="475.07" width="39.59" height="39.59" fill="#faf9f5"/><polygon points="435.48,475.07 435.48,514.66 395.89,514.66" fill="#ae9a56"/><rect x="435.48" y="475.07" width="39.59" height="39.59" fill="#cbbd91"/><polygon points="435.48,475.07 475.07000000000005,475.07 435.48,514.66" fill="#fdf4ee"/><rect x="395.89" y="514.66" width="39.59" height="39.59" fill="#f8f6f0"/><polygon points="395.89,514.66 435.48,514.66 435.48,554.25" fill="#e36a20"/><rect x="435.48" y="514.66" width="39.59" height="39.59" fill="#fcf0e9"/><polygon points="435.48,514.66 475.07000000000005,554.25 435.48,554.25" fill="#e9894f"/><rect x="475.07" y="475.07" width="79.18" height="79.18" fill="#fdf7f3"/><path d="M 475.07 554.25 A 79.18 79.18 0 0 1  554.25 475.07 L 554.25 554.25" fill="#ab954f"/><rect x="554.25" y="475.07" width="79.18" height="79.18" fill="#cbbe93"/><path d="M 554.25 554.25 A 79.18 79.18 0 0 1  633.4300000000001 475.07 L 633.4300000000001 554.25" fill="#ffffff"/><rect x="633.4285714285714" y="475.07142857142856" width="79.17857142857143" height="79.17857142857143" fill="#ffffff"/><rect x="633.43" y="475.07" width="39.59" height="39.59" fill="#f9dfcf"/><polygon points="673.02,475.07 673.02,514.66 633.43,514.66" fill="#f9e1d2"/><rect x="673.02" y="475.07" width="39.59" height="39.59" fill="#d6ccaa"/><polygon points="673.02,475.07 712.61,475.07 673.02,514.66" fill="#e5dec9"/><rect x="633.43" y="514.66" width="39.59" height="39.59" fill="#e9e4d1"/><polygon points="633.43,514.66 673.02,514.66 673.02,554.25" fill="#b19d5b"/><rect x="673.02" y="514.66" width="39.59" height="39.59" fill="#fef9f6"/><polygon points="673.02,514.66 712.61,554.25 673.02,554.25" fill="#efa87c"/><rect x="712.61" y="475.07" width="79.18" height="79.18" fill="#e8874b"/><rect x="712.61" y="475.07" width="79.18" height="79.18" fill="#e78244"/><rect x="791.7857142857143" y="475.07142857142856" width="79.17857142857143" height="79.17857142857143" fill="#ffffff"/><rect x="791.79" y="475.07" width="39.59" height="39.59" fill="#bdad76"/><polygon points="831.38,475.07 831.38,514.66 791.79,514.66" fill="#e88547"/><rect x="831.38" y="475.07" width="39.59" height="39.59" fill="#e78244"/><polygon points="831.38,475.07 870.97,514.66 831.38,514.66" fill="#f1b28c"/><rect x="791.79" y="514.66" width="39.59" height="39.59" fill="#93771d"/><polygon points="791.79,514.66 831.38,514.66 831.38,554.25" fill="#f2b996"/><rect x="831.38" y="514.66" width="39.59" height="39.59" fill="#e36b21"/><polygon points="831.38,514.66 870.97,514.66 831.38,554.25" fill="#92761b"/><rect x="870.9642857142858" y="475.07142857142856" width="79.17857142857143" height="79.17857142857143" fill="#ffffff"/><rect x="870.96" y="475.07" width="39.59" height="39.59" fill="#f5cbb1"/><polygon points="910.5500000000001,475.07 910.5500000000001,514.66 870.96,514.66" fill="#c7b889"/><rect x="910.55" y="475.07" width="39.59" height="39.59" fill="#e4ddc7"/><polygon points="910.55,475.07 950.14,475.07 910.55,514.66" fill="#ec9c6b"/><rect x="870.96" y="514.66" width="39.59" height="39.59" fill="#eea577"/><polygon points="870.96,514.66 910.5500000000001,514.66 910.5500000000001,554.25" fill="#f6f3ec"/><rect x="910.55" y="514.66" width="39.59" height="39.59" fill="#896c09"/><polygon points="910.55,514.66 950.14,554.25 910.55,554.25" fill="#967c24"/></g></svg>