<?xml version="1.0" standalone="no"?><svg xmlns:xlink="http://www.w3.org/1999/xlink" xmlns="http://www.w3.org/2000/svg" viewBox="0 0 1000 636.3569753810083" preserveAspectRatio="xMaxYMax slice"><g transform="scale(1.4654161781946073)"><rect x="0" y="0" width="744.4285714285714" height="434.25" fill="#0221bb"/><rect x="15.508928571428571" y="15.508928571428571" width="31.017857142857142" height="31.017857142857142" fill="#0221bb"/><circle cx="38.775" cy="38.775" r="7.755" fill="#270d51"/><rect x="77.54464285714286" y="15.508928571428571" width="31.017857142857142" height="31.017857142857142" fill="#0221bb"/><rect x="77.54" y="31.02" width="15.51" height="15.51" fill="#1338d8"/><rect x="201.61607142857144" y="15.508928571428571" width="31.017857142857142" height="31.017857142857142" fill="#0221bb"/><circle cx="224.885" cy="38.775" r="7.755" fill="#1034d2"/><rect x="573.83" y="77.54" width="31.02" height="31.02" fill="#0a2cc9"/><rect x="635.8660714285714" y="77.54464285714286" width="31.017857142857142" height="31.017857142857142" fill="#0221bb"/><circle cx="713.41" cy="93.05000000000001" r="15.51" fill="#143adb"/><rect x="77.54" y="139.58" width="31.02" height="31.02" fill="#0a2cc8"/><rect x="635.8660714285714" y="139.58035714285714" width="31.017857142857142" height="31.017857142857142" fill="#0221bb"/><rect x="635.87" y="139.58" width="15.51" height="15.51" fill="#071eac"/><rect x="635.87" y="155.09" width="15.51" height="15.51" fill="#0b1ca2"/><rect x="697.9" y="139.58" width="31.02" height="31.02" fill="#0d30ce"/><rect x="201.62" y="201.62" width="31.02" height="31.02" fill="#061faf"/><rect x="263.65" y="201.62" width="31.02" height="31.02" fill="#380321"/><rect x="387.72" y="201.62" width="31.02" height="31.02" fill="#082ac6"/><rect x="511.79" y="201.62" width="31.02" height="31.02" fill="#0b2ecb"/><circle cx="713.41" cy="217.13" r="15.51" fill="#163dde"/><circle cx="93.05000000000001" cy="279.15999999999997" r="15.51" fill="#051fb2"/><rect x="139.58035714285714" y="263.6517857142857" width="31.017857142857142" height="31.017857142857142" fill="#0221bb"/><rect x="201.61607142857144" y="263.6517857142857" width="31.017857142857142" height="31.017857142857142" fill="#0221bb"/><rect x="325.69" y="263.65" width="31.02" height="31.02" fill="#051fb3"/><rect x="697.9017857142857" y="263.6517857142857" width="31.017857142857142" height="31.017857142857142" fill="#0221bb"/><circle cx="721.165" cy="271.405" r="7.755" fill="#0323bd"/><rect x="77.54464285714286" y="325.6875" width="31.017857142857142" height="31.017857142857142" fill="#0221bb"/><circle cx="85.295" cy="333.445" r="7.755" fill="#1439da"/><circle cx="100.80499999999999" cy="333.445" r="7.755" fill="#0e31d0"/><circle cx="85.295" cy="348.955" r="7.755" fill="#2e093d"/><circle cx="341.2" cy="341.2" r="15.51" fill="#13188a"/><rect x="387.72" y="325.69" width="31.02" height="31.02" fill="#1a1477"/><circle cx="713.41" cy="341.2" r="15.51" fill="#1c1371"/><rect x="15.51" y="387.72" width="31.02" height="31.02" fill="#0626c2"/><rect x="201.61607142857144" y="387.7232142857143" width="31.017857142857142" height="31.017857142857142" fill="#0221bb"/><circle cx="224.885" cy="410.985" r="7.755" fill="#240e5a"/><rect x="263.6517857142857" y="387.7232142857143" width="31.017857142857142" height="31.017857142857142" fill="#0221bb"/><circle cx="286.915" cy="410.985" r="7.755" fill="#151786"/></g></svg>