<?xml version="1.0" standalone="no"?><svg xmlns:xlink="http://www.w3.org/1999/xlink" xmlns="http://www.w3.org/2000/svg" viewBox="0 0 1000 636.3616531969637" preserveAspectRatio="xMaxYMax slice"><g transform="scale(1.1481491262011074)"><rect x="0" y="0" width="950.1428571428571" height="554.25" fill="#a0d8ed"/><rect x="98.97321428571429" y="19.794642857142858" width="39.589285714285715" height="39.589285714285715" fill="#a0d8ed"/><path d="M 732.4 59.38 A 39.59 39.59 0 0 1  771.99 19.79 L 732.4 59.38 A 39.59 39.59 0 0 0 771.99 19.79" fill="#86b8c8"/><g transform="translate(178.15,98.97) scale(1.9795000000000003) rotate(0)"><path fill-rule="evenodd" clip-rule="evenodd" d="M10 20C15.5228 20 20 15.5228 20 10C20 4.47715 15.5228 0 10 0C4.47715 0 0 4.47715 0 10C0 15.5228 4.47715 20 10 20ZM10 17C13.866 17 17 13.866 17 10C17 6.13401 13.866 3 10 3C6.13401 3 3 6.13401 3 10C3 13.866 6.13401 17 10 17Z" fill="#9edfb8"/></g><rect x="336.50892857142856" y="98.97321428571429" width="39.589285714285715" height="39.589285714285715" fill="#a0d8ed"/><path d="M 336.51 98.97 A 19.79 19.79 0 0 1  356.3 118.75999999999999 L 336.51 98.97 A 19.79 19.79 0 0 0 356.3 118.75999999999999" fill="#a0d9e3"/><g transform="translate(336.51,118.77) scale(0.9894999999999999) rotate(0)"><path fill-rule="evenodd" clip-rule="evenodd" d="M10 20C15.5228 20 20 15.5228 20 10C20 4.47715 15.5228 0 10 0C4.47715 0 0 4.47715 0 10C0 15.5228 4.47715 20 10 20ZM10 17C13.866 17 17 13.866 17 10C17 6.13401 13.866 3 10 3C6.13401 3 3 6.13401 3 10C3 13.866 6.13401 17 10 17Z" fill="#65bcc0"/></g><path d="M 574.04 98.97 A 39.59 39.59 0 0 1  613.63 138.56 L 574.04 98.97 A 39.59 39.59 0 0 0 613.63 138.56" fill="#8cbfd1"/><rect x="653.2232142857143" y="98.97321428571429" width="39.589285714285715" height="39.589285714285715" fill="#a0d8ed"/><path d="M 653.22 118.77 A 19.79 19.79 0 0 1  673.01 138.56 L 653.22 118.77 A 19.79 19.79 0 0 0 673.01 138.56" fill="#a0d9e4"/><path d="M 19.79 178.15 A 39.59 39.59 0 0 1  59.38 217.74 L 19.79 178.15 A 39.59 39.59 0 0 0 59.38 217.74" fill="#87a7b5"/><path d="M 257.33 217.74 A 39.59 39.59 0 0 1  296.91999999999996 178.15 L 257.33 217.74 A 39.59 39.59 0 0 0 296.91999999999996 178.15" fill="#9edebb"/><rect x="336.50892857142856" y="178.15178571428572" width="39.589285714285715" height="39.589285714285715" fill="#a0d8ed"/><path d="M 356.3 178.15 A 19.79 19.79 0 0 1  376.09000000000003 197.94 L 356.3 178.15 A 19.79 19.79 0 0 0 376.09000000000003 197.94" fill="#5e868f"/><path d="M 336.51 217.73999999999998 A 19.79 19.79 0 0 1  356.3 197.95 L 336.51 217.73999999999998 A 19.79 19.79 0 0 0 356.3 197.95" fill="#8cbed0"/><path d="M 653.22 178.15 A 39.59 39.59 0 0 1  692.8100000000001 217.74 L 653.22 178.15 A 39.59 39.59 0 0 0 692.8100000000001 217.74" fill="#bfe8da"/><rect x="653.2232142857143" y="257.3303571428571" width="39.589285714285715" height="39.589285714285715" fill="#a0d8ed"/><g transform="translate(653.22,257.33) scale(0.9894999999999999) rotate(0)"><path fill-rule="evenodd" clip-rule="evenodd" d="M10 20C15.5228 20 20 15.5228 20 10C20 4.47715 15.5228 0 10 0C4.47715 0 0 4.47715 0 10C0 15.5228 4.47715 20 10 20ZM10 17C13.866 17 17 13.866 17 10C17 6.13401 13.866 3 10 3C6.13401 3 3 6.13401 3 10C3 13.866 6.13401 17 10 17Z" fill="#8acedd"/></g><g transform="translate(673.02,277.12) scale(0.9894999999999999) rotate(0)"><path fill-rule="evenodd" clip-rule="evenodd" d="M10 20C15.5228 20 20 15.5228 20 10C20 4.47715 15.5228 0 10 0C4.47715 0 0 4.47715 0 10C0 15.5228 4.47715 20 10 20ZM10 17C13.866 17 17 13.866 17 10C17 6.13401 13.866 3 10 3C6.13401 3 3 6.13401 3 10C3 13.866 6.13401 17 10 17Z" fill="#79a8b5"/></g><rect x="19.794642857142858" y="336.50892857142856" width="39.589285714285715" height="39.589285714285715" fill="#a0d8ed"/><g transform="translate(19.79,356.3) scale(0.9894999999999999) rotate(0)"><path fill-rule="evenodd" clip-rule="evenodd" d="M10 20C15.5228 20 20 15.5228 20 10C20 4.47715 15.5228 0 10 0C4.47715 0 0 4.47715 0 10C0 15.5228 4.47715 20 10 20ZM10 17C13.866 17 17 13.866 17 10C17 6.13401 13.866 3 10 3C6.13401 3 3 6.13401 3 10C3 13.866 6.13401 17 10 17Z" fill="#9fdade"/></g><path d="M 574.04 376.1 A 39.59 39.59 0 0 1  613.63 336.51 L 574.04 376.1 A 39.59 39.59 0 0 0 613.63 336.51" fill="#94d2e4"/><rect x="653.2232142857143" y="336.50892857142856" width="39.589285714285715" height="39.589285714285715" fill="#a0d8ed"/><path d="M 653.22 376.09000000000003 A 19.79 19.79 0 0 1  673.01 356.3 L 653.22 376.09000000000003 A 19.79 19.79 0 0 0 673.01 356.3" fill="#9eddc6"/><g transform="translate(257.33,415.69) scale(1.9795000000000003) rotate(0)"><path fill-rule="evenodd" clip-rule="evenodd" d="M10 20C15.5228 20 20 15.5228 20 10C20 4.47715 15.5228 0 10 0C4.47715 0 0 4.47715 0 10C0 15.5228 4.47715 20 10 20ZM10 17C13.866 17 17 13.866 17 10C17 6.13401 13.866 3 10 3C6.13401 3 3 6.13401 3 10C3 13.866 6.13401 17 10 17Z" fill="#9de0b0"/></g><g transform="translate(574.04,415.69) scale(1.9795000000000003) rotate(0)"><path fill-rule="evenodd" clip-rule="evenodd" d="M10 20C15.5228 20 20 15.5228 20 10C20 4.47715 15.5228 0 10 0C4.47715 0 0 4.47715 0 10C0 15.5228 4.47715 20 10 20ZM10 17C13.866 17 17 13.866 17 10C17 6.13401 13.866 3 10 3C6.13401 3 3 6.13401 3 10C3 13.866 6.13401 17 10 17Z" fill="#a3d9eb"/></g><path d="M 653.22 455.28 A 39.59 39.59 0 0 1  692.8100000000001 415.69 L 653.22 455.28 A 39.59 39.59 0 0 0 692.8100000000001 415.69" fill="#83b3c3"/><path d="M 811.58 415.69 A 39.59 39.59 0 0 1  851.1700000000001 455.28 L 811.58 415.69 A 39.59 39.59 0 0 0 851.1700000000001 455.28" fill="#a0d8ed"/><path d="M 890.76 455.28 A 39.59 39.59 0 0 1  930.35 415.69 L 890.76 455.28 A 39.59 39.59 0 0 0 930.35 415.69" fill="#729fab"/><path d="M 178.15 494.87 A 39.59 39.59 0 0 1  217.74 534.46 L 178.15 494.87 A 39.59 39.59 0 0 0 217.74 534.46" fill="#95c2d4"/><path d="M 494.87 494.87 A 39.59 39.59 0 0 1  534.46 534.46 L 494.87 494.87 A 39.59 39.59 0 0 0 534.46 534.46" fill="#9edebe"/><rect x="732.4017857142858" y="494.8660714285714" width="39.589285714285715" height="39.589285714285715" fill="#a0d8ed"/><path d="M 752.2 494.87 A 19.79 19.79 0 0 1  771.99 514.66 L 752.2 494.87 A 19.79 19.79 0 0 0 771.99 514.66" fill="#6abec4"/><rect x="890.7589285714287" y="494.8660714285714" width="39.589285714285715" height="39.589285714285715" fill="#a0d8ed"/></g></svg>