<?xml version="1.0" standalone="no"?><svg xmlns:xlink="http://www.w3.org/1999/xlink" xmlns="http://www.w3.org/2000/svg" viewBox="0 0 1000 636.3616531969637" preserveAspectRatio="xMaxYMax slice"><g transform="scale(1.1481491262011074)"><rect x="0" y="0" width="950.1428571428571" height="554.25" fill="#a0d8ed"/><rect x="166.275" y="7.917857142857144" width="63.34285714285714" height="63.34285714285714" fill="#a0d8ed"/><path d="M 166.28 39.59 A 31.67 31.67 0 0 1  197.95 71.26 L 166.28 39.59 A 31.67 31.67 0 0 0 197.95 71.26" fill="#bbe6dc"/><rect x="482.9892857142857" y="7.917857142857144" width="63.34285714285714" height="63.34285714285714" fill="#a0d8ed"/><rect x="562.1678571428571" y="7.917857142857144" width="63.34285714285714" height="63.34285714285714" fill="#a0d8ed"/><path d="M 562.17 39.59 A 31.67 31.67 0 0 1  593.8399999999999 7.92 L 562.17 39.59 A 31.67 31.67 0 0 0 593.8399999999999 7.92" fill="#c6ecd5"/><rect x="166.275" y="87.09642857142858" width="63.34285714285714" height="63.34285714285714" fill="#a0d8ed"/><path d="M 166.28 118.77 A 31.67 31.67 0 0 1  197.95 87.1 L 166.28 118.77 A 31.67 31.67 0 0 0 197.95 87.1" fill="#b6e3df"/><path d="M 197.95 118.77 A 31.67 31.67 0 0 1  229.62 87.1 L 197.95 118.77 A 31.67 31.67 0 0 0 229.62 87.1" fill="#9fdade"/><path d="M 166.28 150.44 A 31.67 31.67 0 0 1  197.95 118.77 L 166.28 150.44 A 31.67 31.67 0 0 0 197.95 118.77" fill="#4db1ae"/><path d="M 197.95 118.77 A 31.67 31.67 0 0 1  229.62 150.44 L 197.95 118.77 A 31.67 31.67 0 0 0 229.62 150.44" fill="#9edec1"/><rect x="245.45357142857142" y="87.09642857142858" width="63.34285714285714" height="63.34285714285714" fill="#a0d8ed"/><path d="M 245.45 118.77 A 31.67 31.67 0 0 1  277.12 150.44 L 245.45 118.77 A 31.67 31.67 0 0 0 277.12 150.44" fill="#9ed5e9"/><path d="M 482.99 87.1 A 63.34 63.34 0 0 1  546.33 150.44 L 482.99 87.1 A 63.34 63.34 0 0 0 546.33 150.44" fill="#7eadbc"/><path d="M 799.7 150.44 A 63.34 63.34 0 0 1  863.0400000000001 87.1 L 799.7 150.44 A 63.34 63.34 0 0 0 863.0400000000001 87.1" fill="#75858d"/><path d="M 878.88 87.1 A 63.34 63.34 0 0 1  942.22 150.44 L 878.88 87.1 A 63.34 63.34 0 0 0 942.22 150.44" fill="#e2fbc4"/><rect x="7.917857142857144" y="166.275" width="63.34285714285714" height="63.34285714285714" fill="#a0d8ed"/><path d="M 39.59 197.95 A 31.67 31.67 0 0 1  71.26 166.28 L 39.59 197.95 A 31.67 31.67 0 0 0 71.26 166.28" fill="#69949f"/><path d="M 245.45 166.28 A 63.34 63.34 0 0 1  308.78999999999996 229.62 L 245.45 166.28 A 63.34 63.34 0 0 0 308.78999999999996 229.62" fill="#a0d9e2"/><path d="M 245.45 308.78999999999996 A 63.34 63.34 0 0 1  308.78999999999996 245.45 L 245.45 308.78999999999996 A 63.34 63.34 0 0 0 308.78999999999996 245.45" fill="#a5dbea"/><rect x="403.8107142857143" y="245.45357142857142" width="63.34285714285714" height="63.34285714285714" fill="#a0d8ed"/><path d="M 403.81 245.45 A 31.67 31.67 0 0 1  435.48 277.12 L 403.81 245.45 A 31.67 31.67 0 0 0 435.48 277.12" fill="#67bdc2"/><path d="M 435.48 277.12 A 31.67 31.67 0 0 1  467.15000000000003 245.45 L 435.48 277.12 A 31.67 31.67 0 0 0 467.15000000000003 245.45" fill="#90c4d6"/><rect x="562.1678571428571" y="245.45357142857142" width="63.34285714285714" height="63.34285714285714" fill="#a0d8ed"/><path d="M 562.17 245.45 A 31.67 31.67 0 0 1  593.8399999999999 277.12 L 562.17 245.45 A 31.67 31.67 0 0 0 593.8399999999999 277.12" fill="#719da9"/><path d="M 7.92 403.81 A 63.34 63.34 0 0 1  71.26 467.15 L 7.92 403.81 A 63.34 63.34 0 0 0 71.26 467.15" fill="#90d0e1"/><rect x="87.09642857142858" y="403.8107142857143" width="63.34285714285714" height="63.34285714285714" fill="#a0d8ed"/><path d="M 87.1 435.48 A 31.67 31.67 0 0 1  118.77 403.81 L 87.1 435.48 A 31.67 31.67 0 0 0 118.77 403.81" fill="#626063"/><path d="M 482.99 403.81 A 63.34 63.34 0 0 1  546.33 467.15 L 482.99 403.81 A 63.34 63.34 0 0 0 546.33 467.15" fill="#54b4b3"/><path d="M 720.53 403.81 A 63.34 63.34 0 0 1  783.87 467.15 L 720.53 403.81 A 63.34 63.34 0 0 0 783.87 467.15" fill="#676b6f"/><rect x="878.8821428571429" y="403.8107142857143" width="63.34285714285714" height="63.34285714285714" fill="#a0d8ed"/><path d="M 910.55 435.48 A 31.67 31.67 0 0 1  942.2199999999999 403.81 L 910.55 435.48 A 31.67 31.67 0 0 0 942.2199999999999 403.81" fill="#628a94"/><path d="M 878.88 435.48 A 31.67 31.67 0 0 1  910.55 467.15000000000003 L 878.88 435.48 A 31.67 31.67 0 0 0 910.55 467.15000000000003" fill="#a4daeb"/><path d="M 7.92 482.99 A 63.34 63.34 0 0 1  71.26 546.33 L 7.92 482.99 A 63.34 63.34 0 0 0 71.26 546.33" fill="#c3ead7"/><path d="M 166.28 482.99 A 63.34 63.34 0 0 1  229.62 546.33 L 166.28 482.99 A 63.34 63.34 0 0 0 229.62 546.33" fill="#a3daeb"/><path d="M 245.45 546.33 A 63.34 63.34 0 0 1  308.78999999999996 482.99 L 245.45 546.33 A 63.34 63.34 0 0 0 308.78999999999996 482.99" fill="#7fc8d4"/></g></svg>