<?xml version="1.0" encoding="UTF-8"?>
<!-- Generator: Adobe Illustrator 25.2.3, SVG Export Plug-In . SVG Version: 6.00 Build 0)  -->
<svg version="1.1" id="Capa_1" xmlns="http://www.w3.org/2000/svg" xmlns:xlink="http://www.w3.org/1999/xlink" x="0px" y="0px" viewBox="0 0 465 118" style="enable-background:new 0 0 465 118;" xml:space="preserve">
<style type="text/css">
	.st0{enable-background:new    ;}
	.st1{fill:#E06C33;}
</style>
<g class="st0">
	<path class="st1" d="M43.3,66.4H27l-3.9,12h-9.4l15.9-46.2h12.5l15.3,46.2H47.2L43.3,66.4z M35.1,40.9l-6,18.6h11.9L35.1,40.9z"/>
	<path class="st1" d="M70.7,95.1c-9.1,0-13.4-3.9-13.4-8.5c0-3.5,2.7-5.7,4.8-7.3c0.6-0.4,1.8-1.2,3-2c-2.6-1.2-3.7-3.1-3.7-5.2   c0-2.3,2-4.7,4.1-6.4c-4.2-1.7-7-5.1-7-10c0-7.5,5.7-12.4,15.4-12.4c3.1,0,5.9,0.8,8.1,2.1c2.7-0.7,9.3-2.2,9.4-2.1v7.6h-1.4   l-3.7-0.6c0.5,1.2,0.7,2.6,0.7,4c0,7.6-6.3,12.4-15.1,12.4c-0.4,0-0.7,0-1,0c-0.7,0.7-1.1,1.4-1.1,2.3c0,1.2,1.1,2,4.2,2.3l7.4,0.7   c5.6,0.5,9.1,2.4,9.1,8.3C90.4,88.3,81.8,95.1,70.7,95.1z M81.7,82.8c0-1.7-1.4-2.9-5.1-3.4l-6.2-0.8c-0.5,0.4-1.1,0.8-1.5,1.1   c-1.8,1.5-2.9,3-2.9,4.5c0,2.3,2.3,4.1,7.3,4.1C78.3,88.3,81.7,85.7,81.7,82.8z M71.9,48.8c-3,0-4.3,1.4-4.3,5.8   c0,4.8,2.9,6.5,6,6.5c2.7,0,4.3-1.5,4.3-5.8C77.8,50.5,75,48.8,71.9,48.8z"/>
	<path class="st1" d="M109.6,79.6c-8.8,0-16.4-4.9-16.4-17.2c0-11.9,6.6-19,16.8-19c10.1,0,13.1,6.7,13.1,14.2   c0,1.5-0.2,3.8-0.3,4.8h-20.4c0.5,7.8,5,10,9.3,10c3.6,0,7.3-0.8,10.1-2l1.5,6.2C119.8,78.3,115.1,79.6,109.6,79.6z M102.7,56.8   h11.8c0-5-2.1-7.4-6-7.4C105.1,49.4,103.2,51.1,102.7,56.8z"/>
	<path class="st1" d="M138.7,52.2v26.3h-9.5V44.7l6.8-1.4l1.8,3.4c3.1-1.7,7.4-3.4,11.2-3.4c6.3,0,10.8,3.4,10.8,10.3v24.9h-9.5   V56.7c0-4.8-2.7-6.2-5.7-6.2C142.7,50.5,140.2,51.3,138.7,52.2z"/>
	<path class="st1" d="M193.1,77.2c-3.1,1.4-7.3,2.4-11.3,2.4c-9.2,0-16.7-5.6-16.7-17c0-12.5,8.2-19.3,18-19.3   c4.7,0,7.9,0.8,9.8,1.7l-1.7,7.3c-1.9-0.9-5.7-1.8-8.1-1.8c-5.2,0-8.4,3-8.4,10.6c0,8,4.7,11.1,9.5,11.1c2.8,0,5.5-0.6,7.8-1.5   L193.1,77.2z"/>
	<path class="st1" d="M202.7,27.4c1.9,0,6.2,2.9,6.2,5.1c0,2.1-3.7,5.9-5.6,5.9c-2,0-6.2-2.9-6.2-5.1   C197.1,31.2,200.7,27.4,202.7,27.4z M207.7,43.2v35.2h-9.5V44.6L207.7,43.2z"/>
	<path class="st1" d="M233.3,76c-2.8,1.8-6.5,3.6-9.6,3.6c-5.9,0-10.4-3.8-10.4-9.7c0-6.6,5.3-11.2,19-11.7v-1.4   c0-4.2-2-5.9-5.7-5.9c-3.2,0-7.3,1.1-10.4,2.3l-1.8-6.6c5-1.8,9.7-3.2,15.1-3.2c7.7,0,12.1,3.7,12.1,11.5v23.4l-6.5,1.4L233.3,76z    M232.4,71.3v-7c-1.3-0.2-2.9-0.3-4.2-0.3c-4.2,0-6.3,1.6-6.3,4.4c0,2.7,2,4.5,4.9,4.5C228.3,72.9,230.5,72.2,232.4,71.3z"/>
</g>
<path class="st1" d="M407.3,78.3V43.4h11v26.3H432l-3.1,8.6H407.3z M379.2,65.1h7.7c-1.8-6-2.4-9.1-2.4-12.8h-2.7  C381.8,56,381,59.1,379.2,65.1z M365,78.3v-3.1l9.3-31.8h18.3l9.1,31.8v3.1h-10.6c-0.7-2.2-1.3-4-1.8-5.8H377l-2,5.8H365z   M322.8,78.3V43.4h15.3c8.6,15.9,8.8,19.2,8.8,23.2h2.7V43.4h9.7v34.9h-14.6c-9.3-16.3-9.5-19.5-9.5-23.9h-2.6v23.9H322.8z   M297.2,79.2c-10.2,0-15.7-4.8-15.7-12.6V43.4h11.1v20.3c0,4.2,1.8,6.4,5.8,6.4s5.9-1.5,5.9-5.1V43.4h10.4v21.7  C314.7,73.3,308.2,79.2,297.2,79.2L297.2,79.2z M257.9,16.4v44.7c0,27.7,17,44.5,44.7,44.5h148.8V61.1c0-27.5-17-44.7-44.7-44.7  L257.9,16.4z"/>
</svg>